<svg xmlns="http://www.w3.org/2000/svg" xmlns:xlink="http://www.w3.org/1999/xlink" xmlns:fi="http://pattern.flaticon.com/" x="0" y="0" width="1920" height="960" viewBox="0 0 700 350"><rect x="0px" y="0px" width="100%" height="100%" opacity="1" fill="#07000b"/><defs><g transform="matrix(0.13671821355819702 0 0 0.13671821355819702 315 315)" id="L1_78"><g><path d="M317.024,306.849c0.352-3.383,2.797-6.18,6.109-6.965c3.305-0.781,6.758,0.602,8.594,3.469     l49.016,76.629c7.367,11.57,11.258,24.937,11.258,38.656v85.363c0,3.383-2.125,6.398-5.312,7.535     c-0.875,0.312-1.789,0.465-2.688,0.465c-2.352,0-4.641-1.039-6.195-2.934l-70.32-85.949c-1.344-1.648-1.977-3.766-1.766-5.883     L317.024,306.849z" fill="#ff4f19"/><path d="M194.977,306.849c-0.352-3.383-2.797-6.18-6.109-6.965c-3.305-0.781-6.758,0.602-8.594,3.469     l-49.016,76.629c-7.367,11.57-11.258,24.937-11.258,38.656v85.363c0,3.383,2.125,6.398,5.312,7.535     c0.875,0.312,1.789,0.465,2.688,0.465c2.352,0,4.641-1.039,6.195-2.934l70.32-85.949c1.344-1.648,1.977-3.766,1.766-5.883     L194.977,306.849z" fill="#e9001e"/><path d="M260.118,1.143c-2.531-1.523-5.703-1.523-8.234,0c-3.422,2.055-83.883,51.562-83.883,158.859     c0,43.324,10.766,158.594,25.047,268.125c2.07,15.891,15.703,27.875,31.695,27.875h62.516c15.992,0,29.625-11.984,31.695-27.875     c14.281-109.531,25.047-224.801,25.047-268.125C344.001,52.705,263.54,3.197,260.118,1.143z" fill="#ffd200"/><path d="M256.001,456.002h-31.258c-15.992,0-29.625-11.984-31.695-27.875     c-14.281-109.531-25.047-224.801-25.047-268.125c0-107.297,80.461-156.805,83.883-158.859c1.261-0.759,2.682-1.138,4.103-1.141     h0.015V456.002z" fill="#ff9600"/><circle cx="256" cy="168" r="48" fill="#53dcff"/><path d="M256.001,512.002c-4.422,0-8-3.582-8-8v-192c0-4.418,3.578-8,8-8s8,3.582,8,8v192      C264.001,508.42,260.423,512.002,256.001,512.002z" fill="#ff4f19"/><path d="M251.884,1.143c-2.288,1.374-38.98,23.989-63.071,70.859h134.376     c-24.091-46.87-60.783-69.486-63.071-70.859C257.587-0.381,254.415-0.381,251.884,1.143z" fill="#ff4f19"/><path d="M256.001,0c-1.426,0-2.852,0.381-4.117,1.143c-2.288,1.374-38.98,23.989-63.071,70.859h67.188V0z" fill="#e9001e"/><path d="M304.001,168.002c0-26.51-21.49-48-48-48v96C282.511,216.002,304.001,194.512,304.001,168.002z" fill="#b3f4ff"/></g><path d="M256.001,224.002c-30.875,0-56-25.121-56-56s25.125-56,56-56s56,25.121,56,56     S286.876,224.002,256.001,224.002z M256.001,128.002c-22.055,0-40,17.945-40,40s17.945,40,40,40s40-17.945,40-40     S278.056,128.002,256.001,128.002z" fill="#5c546a"/></g><g transform="matrix(0.09765625 0 0 0.09765625 150 325)" id="L1_79"><path d="M0,134v328c0,22.055,17.945,40,40,40h432c22.055,0,40-17.945,40-40V134H0z" fill="#d8dce1"/><path d="M472,22H40C17.945,22,0,39.945,0,62v72h512V62C512,39.945,494.054,22,472,22z M64,102    c-13.255,0-24-10.745-24-24s10.745-24,24-24s24,10.745,24,24S77.255,102,64,102z M448,102c-13.255,0-24-10.745-24-24    s10.745-24,24-24s24,10.745,24,24S461.255,102,448,102z" fill="#ff4f19"/><g><path d="M256,206c-17.648,0-32,14.352-32,32s14.352,32,32,32s32-14.352,32-32S273.648,206,256,206z" fill="#ffffff"/><path d="M176,206c-17.648,0-32,14.352-32,32s14.352,32,32,32s32-14.352,32-32S193.648,206,176,206z" fill="#ffffff"/><path d="M96,206c-17.648,0-32,14.352-32,32s14.352,32,32,32s32-14.352,32-32S113.648,206,96,206z" fill="#ffffff"/><path d="M336,206c-17.648,0-32,14.352-32,32s14.352,32,32,32c17.648,0,32-14.352,32-32     S353.648,206,336,206z" fill="#ffffff"/><path d="M416,270c17.648,0,32-14.352,32-32s-14.352-32-32-32c-17.648,0-32,14.352-32,32     S398.351,270,416,270z" fill="#ffffff"/><path d="M256,286c-17.648,0-32,14.352-32,32s14.352,32,32,32s32-14.352,32-32S273.648,286,256,286z" fill="#ffffff"/><path d="M176,286c-17.648,0-32,14.352-32,32s14.352,32,32,32s32-14.352,32-32S193.648,286,176,286z" fill="#ffffff"/><path d="M96,286c-17.648,0-32,14.352-32,32s14.352,32,32,32s32-14.352,32-32S113.648,286,96,286z" fill="#ffffff"/><path d="M336,286c-17.648,0-32,14.352-32,32s14.352,32,32,32c17.648,0,32-14.352,32-32     S353.648,286,336,286z" fill="#ffffff"/><path d="M416,286c-17.648,0-32,14.352-32,32s14.352,32,32,32c17.648,0,32-14.352,32-32     S433.648,286,416,286z" fill="#ffffff"/><path d="M256,366c-17.648,0-32,14.352-32,32c0,17.648,14.352,32,32,32s32-14.352,32-32     C288,380.351,273.648,366,256,366z" fill="#ffffff"/><path d="M176,366c-17.648,0-32,14.352-32,32c0,17.648,14.352,32,32,32s32-14.352,32-32     C208,380.351,193.648,366,176,366z" fill="#ffffff"/><path d="M96,366c-17.648,0-32,14.352-32,32c0,17.648,14.352,32,32,32s32-14.352,32-32     C128,380.351,113.648,366,96,366z" fill="#ffffff"/><path d="M336,366c-17.648,0-32,14.352-32,32c0,17.648,14.352,32,32,32c17.648,0,32-14.352,32-32     C368,380.351,353.648,366,336,366z" fill="#ffffff"/><path d="M416,366c-17.648,0-32,14.352-32,32c0,17.648,14.352,32,32,32c17.648,0,32-14.352,32-32     C448,380.351,433.648,366,416,366z" fill="#ffffff"/></g><path d="M64,90c-6.625,0-12-5.371-12-12V22c0-6.629,5.375-12,12-12s12,5.371,12,12v56     C76,84.629,70.625,90,64,90z" fill="#5c546a"/><path d="M448,90c-6.625,0-12-5.371-12-12V22c0-6.629,5.375-12,12-12s12,5.371,12,12v56     C460,84.629,454.625,90,448,90z" fill="#5c546a"/><circle cx="96" cy="238" r="32" fill="#ffd200"/><circle cx="256" cy="398" r="32" fill="#ff9600"/><circle cx="336" cy="318" r="32" fill="#ff4f19"/></g><g transform="matrix(0.09765625 0 0 0.09765625 237.5 150)" id="L1_80"><path d="M416,32H272c0,8.836-7.164,16-16,16s-16-7.164-16-16H96c-22.055,0-40,17.945-40,40v400    c0,22.055,17.945,40,40,40h320c22.055,0,40-17.945,40-40V72C456,49.945,438.054,32,416,32z M416,464c0,4.418-3.582,8-8,8H104    c-4.418,0-8-3.582-8-8V80c0-4.418,3.582-8,8-8h304c4.418,0,8,3.582,8,8V464z" fill="#9f6459"/><path d="M152,368c-1.891,0-3.789-0.664-5.312-2.023c-3.305-2.93-3.602-7.992-0.664-11.289l64-72     c2.328-2.625,6.094-3.422,9.289-1.969l80.445,36.57l52.844-128.336c1.688-4.078,6.359-6,10.445-4.352     c4.086,1.68,6.031,6.359,4.352,10.445l-56,136c-0.828,2.008-2.438,3.594-4.453,4.391s-4.273,0.742-6.258-0.156l-82.625-37.555     l-60.086,67.586C156.398,367.094,154.203,368,152,368z" fill="#d8dce1"/><circle cx="152" cy="360" r="24" fill="#ff4f19"/><circle cx="216" cy="288" r="24" fill="#ff9600"/><circle cx="304" cy="328" r="24" fill="#ffd200"/><circle cx="360" cy="192" r="24" fill="#74d24f"/><path d="M304,16h-20.391C277.969,6.242,267.484,0,256,0s-21.969,6.242-27.609,16H208    c-22.055,0-40,17.945-40,40v32c0,4.418,3.578,8,8,8h160c4.422,0,8-3.582,8-8V56C344,33.945,326.055,16,304,16z M256,40    c-4.418,0-8-3.582-8-8c0-4.418,3.582-8,8-8s8,3.582,8,8C264,36.418,260.418,40,256,40z" fill="#b9bbc1"/></g><g transform="matrix(0.09765644371509552 0 0 0.09765644371509552 62.5 150)" id="L1_81"><path d="M149.6,441.747l73.469-80l-15.738-41.083c0,0-47.333,6.667-48.667,10.667    c-1.333,4-5.333,57.333-6,66.667C151.998,407.33,149.6,441.747,149.6,441.747" fill="#5c546a"/><path d="M509.764,38.45c-2.219-2.297-5.578-3.047-8.547-1.953l-496,184    c-3.031,1.125-5.086,3.961-5.211,7.191s1.703,6.219,4.641,7.574l89.227,41.176c6.938,3.207,11.977,9.594,13.477,17.086    l28.805,144.043c0.664,3.305,3.328,5.844,6.664,6.344c3.281,0.473,6.617-1.152,8.227-4.121l45.477-84.453    c1.234-2.293,3.422-3.805,6-4.141c2.602-0.336,5.078,0.551,6.859,2.449L322.17,473.481c1.531,1.621,3.641,2.516,5.828,2.516    c0.477,0,0.961-0.043,1.438-0.129c2.672-0.488,4.914-2.297,5.953-4.805l176-424C512.607,44.126,511.967,40.743,509.764,38.45z" fill="#b9bbc1"/><path d="M506.198,36.365l-404.971,245.58c3.012,3.225,5.238,7.158,6.124,11.578l28.805,144.043    c0.664,3.305,3.328,5.844,6.664,6.344c3.281,0.473,6.617-1.152,8.227-4.121l45.477-84.453c0.32-0.594,0.855-0.97,1.293-1.452    c0.035-0.176,0.069-0.351,0.069-0.351L509.702,38.403C508.713,37.399,507.495,36.738,506.198,36.365z" fill="#8b8996"/></g></defs><g fi:class="KUsePattern" opacity="0.05"><pattern id="pattern_L1_78" width="350" height="350" patternUnits="userSpaceOnUse"><use xlink:href="#L1_78" x="-350" y="-350"/><use xlink:href="#L1_78" x="0" y="-350"/><use xlink:href="#L1_78" x="350" y="-350"/><use xlink:href="#L1_78" x="-350" y="0"/><use xlink:href="#L1_78" x="0" y="0"/><use xlink:href="#L1_78" x="350" y="0"/><use xlink:href="#L1_78" x="-350" y="350"/><use xlink:href="#L1_78" x="0" y="350"/><use xlink:href="#L1_78" x="350" y="350"/></pattern><rect x="0" y="0" width="100%" height="100%" fill="url(#pattern_L1_78)"/></g><g fi:class="KUsePattern" opacity="0.03"><pattern id="pattern_L1_79" width="350" height="350" patternUnits="userSpaceOnUse"><use xlink:href="#L1_79" x="-350" y="-350"/><use xlink:href="#L1_79" x="0" y="-350"/><use xlink:href="#L1_79" x="350" y="-350"/><use xlink:href="#L1_79" x="-350" y="0"/><use xlink:href="#L1_79" x="0" y="0"/><use xlink:href="#L1_79" x="350" y="0"/><use xlink:href="#L1_79" x="-350" y="350"/><use xlink:href="#L1_79" x="0" y="350"/><use xlink:href="#L1_79" x="350" y="350"/></pattern><rect x="0" y="0" width="100%" height="100%" fill="url(#pattern_L1_79)"/></g><g fi:class="KUsePattern" opacity="0.04"><pattern id="pattern_L1_80" width="350" height="350" patternUnits="userSpaceOnUse"><use xlink:href="#L1_80" x="-350" y="-350"/><use xlink:href="#L1_80" x="0" y="-350"/><use xlink:href="#L1_80" x="350" y="-350"/><use xlink:href="#L1_80" x="-350" y="0"/><use xlink:href="#L1_80" x="0" y="0"/><use xlink:href="#L1_80" x="350" y="0"/><use xlink:href="#L1_80" x="-350" y="350"/><use xlink:href="#L1_80" x="0" y="350"/><use xlink:href="#L1_80" x="350" y="350"/></pattern><rect x="0" y="0" width="100%" height="100%" fill="url(#pattern_L1_80)"/></g><g fi:class="KUsePattern" opacity="0.04"><pattern id="pattern_L1_81" width="350" height="350" patternUnits="userSpaceOnUse"><use xlink:href="#L1_81" x="-350" y="-350"/><use xlink:href="#L1_81" x="0" y="-350"/><use xlink:href="#L1_81" x="350" y="-350"/><use xlink:href="#L1_81" x="-350" y="0"/><use xlink:href="#L1_81" x="0" y="0"/><use xlink:href="#L1_81" x="350" y="0"/><use xlink:href="#L1_81" x="-350" y="350"/><use xlink:href="#L1_81" x="0" y="350"/><use xlink:href="#L1_81" x="350" y="350"/></pattern><rect x="0" y="0" width="100%" height="100%" fill="url(#pattern_L1_81)"/></g></svg>