<svg xmlns="http://www.w3.org/2000/svg" width="430.507" height="460.401"><g fill="#fffafe"><g style="line-height:1.25;-inkscape-font-specification:'Open Sans, Normal';font-variant-ligatures:normal;font-variant-caps:normal;font-variant-numeric:normal;font-feature-settings:normal;text-align:start"><path style="-inkscape-font-specification:Monogramus" d="M200.687 196.124v68.209l.182 95.276-98.67-69.423.065-42.386c5.38 4.095 8.38 5.757 13.412 9.85l-.13-65.207c-5.383 3.41-8.152 4.672-13.54 7.61l.204-30.436 99.29-69.05zm-55.125 83.742a697.466 697.466 0 0013.284 10.805 202.114 202.114 0 0011.954 8.78V152.903c-3.985 2.25-7.97 4.952-11.954 8.104a697.466 697.466 0 00-13.284 10.805z" font-size="333.333" font-family="Monogramus" aria-label="d" font-weight="400" letter-spacing="0" word-spacing="0"/></g><g style="line-height:1.25;-inkscape-font-specification:'Open Sans, Normal';font-variant-ligatures:normal;font-variant-caps:normal;font-variant-numeric:normal;font-feature-settings:normal;text-align:start"><path d="M302.843 151l26.49 18.406v121.522l-26.49 18.507v-46.047H258.47v76.69l-27.417 18.95-.375-258.392 27.726 19.444.066 32.155v80.393h44.372v-44.041z" style="-inkscape-font-specification:Monogramus" font-size="333.333" font-family="Monogramus" aria-label="h" font-weight="400" letter-spacing="0" word-spacing="0"/></g><g paint-order="fill markers stroke"><path d="M215.212 33.643L31.192 157.268v146.741l184.02 124.729 185.092-124.729V157.268zm.257 6.197l178.497 120.443v139.62l-178.497 120.9-178.494-120.9v-139.62z"/><path d="M215.154 10L10 147.1v164.849L215.154 450.4 420.507 311.95v-164.85zm.285 9.171l197.827 133.486v154.74L215.439 441.393 17.615 307.398v-154.74z"/></g></g></svg>